<?xml version="1.0" standalone="no"?>
<!DOCTYPE svg PUBLIC "-//W3C//DTD SVG 20010904//EN"
 "http://www.w3.org/TR/2001/REC-SVG-20010904/DTD/svg10.dtd">
<svg version="1.0" xmlns="http://www.w3.org/2000/svg"
 width="700.000000pt" height="700.000000pt" viewBox="0 0 700.000000 700.000000"
 preserveAspectRatio="xMidYMid meet">
<metadata>
Created by potrace 1.11, written by Peter Selinger 2001-2013
</metadata>
<g transform="translate(0.000000,700.000000) scale(0.100000,-0.100000)"
fill="#000000" stroke="none">
<path d="M1460 4907 c-1 -29 -1 -160 -2 -292 l0 -240 436 0 c286 0 436 -3 437
-10 0 -5 1 -530 2 -1165 l2 -1155 291 -1 291 -2 -1 1152 c-1 633 0 1158 2
1166 3 13 59 15 438 15 l434 0 0 292 0 292 -1165 0 -1165 0 0 -52z"/>
<path d="M3500 3500 l0 -290 290 0 c225 0 290 -3 291 -12 0 -7 1 -269 2 -583
l2 -570 291 -2 291 -2 1 572 c0 315 1 578 1 585 1 9 66 12 291 12 l290 0 0
290 0 290 -875 0 -875 0 0 -290z"/>
</g>
</svg>
